REM DIRINDEX 1\2,1\3,1\4,1\5,1\6
REM DIRNAME cjc030,folder01,folder02,folder03,folder04,folder05
TITLE ""
FILE "Disc2Track31.mp3" MP3
  TRACK 01 AUDIO
    TITLE "2:cjc030_02902"
    INDEX 01 00:00:00
  TRACK 02 AUDIO
    TITLE "0:"
    INDEX 01 00:04:03
  TRACK 03 AUDIO
    TITLE "3:cjc030_02903"
    INDEX 01 00:04:40
  TRACK 04 AUDIO
    TITLE "0:"
    INDEX 01 00:05:40
  TRACK 05 AUDIO
    TITLE "4:cjc030_02904"
    INDEX 01 00:05:48
  TRACK 06 AUDIO
    TITLE "0:"
    INDEX 01 00:06:49
  TRACK 07 AUDIO
    TITLE "5:cjc030_02905"
    INDEX 01 00:06:57
  TRACK 08 AUDIO
    TITLE "0:"
    INDEX 01 00:07:58
  TRACK 09 AUDIO
    TITLE "6:cjc030_02906"
    INDEX 01 00:07:70
  TRACK 10 AUDIO
    TITLE "0:"
    INDEX 01 00:11:15
  TRACK 11 AUDIO
    TITLE "3:cjc030_02907"
    INDEX 01 00:11:64
  TRACK 12 AUDIO
    TITLE "0:"
    INDEX 01 00:12:71
  TRACK 13 AUDIO
    TITLE "4:cjc030_02908"
    INDEX 01 00:13:04
  TRACK 14 AUDIO
    TITLE "0:"
    INDEX 01 00:14:04
  TRACK 15 AUDIO
    TITLE "5:cjc030_02909"
    INDEX 01 00:14:13
  TRACK 16 AUDIO
    TITLE "0:"
    INDEX 01 00:15:21
  TRACK 17 AUDIO
    TITLE "3:cjc030_02910"
    INDEX 01 00:16:00
  TRACK 18 AUDIO
    TITLE "0:"
    INDEX 01 00:17:23
  TRACK 19 AUDIO
    TITLE "4:cjc030_02911"
    INDEX 01 00:17:31
  TRACK 20 AUDIO
    TITLE "0:"
    INDEX 01 00:19:22
  TRACK 21 AUDIO
    TITLE "5:cjc030_02912"
    INDEX 01 00:19:30
  TRACK 22 AUDIO
    TITLE "0:"
    INDEX 01 00:20:51
  TRACK 23 AUDIO
    TITLE "6:cjc030_02913"
    INDEX 01 00:20:65
  TRACK 24 AUDIO
    TITLE "0:"
    INDEX 01 00:23:30
  TRACK 25 AUDIO
    TITLE "3:cjc030_02914"
    INDEX 01 00:24:04
  TRACK 26 AUDIO
    TITLE "0:"
    INDEX 01 00:25:23
  TRACK 27 AUDIO
    TITLE "4:cjc030_02915"
    INDEX 01 00:25:33
  TRACK 28 AUDIO
    TITLE "0:"
    INDEX 01 00:26:40
  TRACK 29 AUDIO
    TITLE "5:cjc030_02916"
    INDEX 01 00:26:48
  TRACK 30 AUDIO
    TITLE "0:"
    INDEX 01 00:27:67
  TRACK 31 AUDIO
    TITLE "6:cjc030_02917"
    INDEX 01 00:28:06
  TRACK 32 AUDIO
    TITLE "0:"
    INDEX 01 00:30:46
  TRACK 33 AUDIO
    TITLE "3:cjc030_02918"
    INDEX 01 00:31:18
  TRACK 34 AUDIO
    TITLE "0:"
    INDEX 01 00:32:43
  TRACK 35 AUDIO
    TITLE "4:cjc030_02919"
    INDEX 01 00:32:48
  TRACK 36 AUDIO
    TITLE "0:"
    INDEX 01 00:34:51
  TRACK 37 AUDIO
    TITLE "5:cjc030_02920"
    INDEX 01 00:34:57
  TRACK 38 AUDIO
    TITLE "0:"
    INDEX 01 00:36:09
  TRACK 39 AUDIO
    TITLE "6:cjc030_02921"
    INDEX 01 00:36:21
  TRACK 40 AUDIO
    TITLE "0:"
    INDEX 01 00:37:69
  TRACK 41 AUDIO
    TITLE "3:cjc030_02922"
    INDEX 01 00:38:43
  TRACK 42 AUDIO
    TITLE "0:"
    INDEX 01 00:39:64
  TRACK 43 AUDIO
    TITLE "4:cjc030_02923"
    INDEX 01 00:39:72
  TRACK 44 AUDIO
    TITLE "0:"
    INDEX 01 00:40:73
  TRACK 45 AUDIO
    TITLE "5:cjc030_02924"
    INDEX 01 00:41:06
  TRACK 46 AUDIO
    TITLE "0:"
    INDEX 01 00:42:27
  TRACK 47 AUDIO
    TITLE "3:cjc030_02925"
    INDEX 01 00:43:13
  TRACK 48 AUDIO
    TITLE "0:"
    INDEX 01 00:44:22
  TRACK 49 AUDIO
    TITLE "4:cjc030_02926"
    INDEX 01 00:44:30
  TRACK 50 AUDIO
    TITLE "0:"
    INDEX 01 00:46:23
  TRACK 51 AUDIO
    TITLE "5:cjc030_02927"
    INDEX 01 00:46:33
  TRACK 52 AUDIO
    TITLE "0:"
    INDEX 01 00:47:40
  TRACK 53 AUDIO
    TITLE "6:cjc030_02928"
    INDEX 01 00:47:52
  TRACK 54 AUDIO
    TITLE "0:"
    INDEX 01 00:51:36
  TRACK 55 AUDIO
    TITLE "3:cjc030_02929"
    INDEX 01 00:52:10
  TRACK 56 AUDIO
    TITLE "0:"
    INDEX 01 00:53:25
  TRACK 57 AUDIO
    TITLE "4:cjc030_02930"
    INDEX 01 00:53:33
  TRACK 58 AUDIO
    TITLE "0:"
    INDEX 01 00:54:50
  TRACK 59 AUDIO
    TITLE "5:cjc030_02931"
    INDEX 01 00:54:60
  TRACK 60 AUDIO
    TITLE "0:"
    INDEX 01 00:55:73
  TRACK 61 AUDIO
    TITLE "6:cjc030_02932"
    INDEX 01 00:56:10
  TRACK 62 AUDIO
    TITLE "0:"
    INDEX 01 00:58:30
  TRACK 63 AUDIO
    TITLE "3:cjc030_02933"
    INDEX 01 00:59:02
  TRACK 64 AUDIO
    TITLE "0:"
    INDEX 01 01:00:35
  TRACK 65 AUDIO
    TITLE "4:cjc030_02934"
    INDEX 01 01:00:43
  TRACK 66 AUDIO
    TITLE "0:"
    INDEX 01 01:01:40
  TRACK 67 AUDIO
    TITLE "5:cjc030_02935"
    INDEX 01 01:01:48
  TRACK 68 AUDIO
    TITLE "0:"
    INDEX 01 01:03:06
  TRACK 69 AUDIO
    TITLE "3:cjc030_02936"
    INDEX 01 01:03:65
  TRACK 70 AUDIO
    TITLE "0:"
    INDEX 01 01:05:15
  TRACK 71 AUDIO
    TITLE "4:cjc030_02937"
    INDEX 01 01:05:24
  TRACK 72 AUDIO
    TITLE "0:"
    INDEX 01 01:07:55
  TRACK 73 AUDIO
    TITLE "5:cjc030_02938"
    INDEX 01 01:07:63
  TRACK 74 AUDIO
    TITLE "0:"
    INDEX 01 01:09:12
  TRACK 75 AUDIO
    TITLE "6:cjc030_02939"
    INDEX 01 01:09:26
  TRACK 76 AUDIO
    TITLE "0:"
    INDEX 01 01:12:15
  TRACK 77 AUDIO
    TITLE "3:cjc030_02940"
    INDEX 01 01:12:64
  TRACK 78 AUDIO
    TITLE "0:"
    INDEX 01 01:14:14
  TRACK 79 AUDIO
    TITLE "4:cjc030_02941"
    INDEX 01 01:14:21
  TRACK 80 AUDIO
    TITLE "0:"
    INDEX 01 01:14:72
  TRACK 81 AUDIO
    TITLE "5:cjc030_02942"
    INDEX 01 01:15:07
  TRACK 82 AUDIO
    TITLE "0:"
    INDEX 01 01:16:30
  TRACK 83 AUDIO
    TITLE "3:cjc030_02943"
    INDEX 01 01:17:12
  TRACK 84 AUDIO
    TITLE "0:"
    INDEX 01 01:18:25
  TRACK 85 AUDIO
    TITLE "4:cjc030_02944"
    INDEX 01 01:18:37
  TRACK 86 AUDIO
    TITLE "0:"
    INDEX 01 01:20:57
  TRACK 87 AUDIO
    TITLE "5:cjc030_02945"
    INDEX 01 01:20:67
  TRACK 88 AUDIO
    TITLE "0:"
    INDEX 01 01:22:03
  TRACK 89 AUDIO
    TITLE "6:cjc030_02946"
    INDEX 01 01:22:17
  TRACK 90 AUDIO
    TITLE "0:"
    INDEX 01 01:26:60
  TRACK 91 AUDIO
    TITLE "3:cjc030_02947"
    INDEX 01 01:27:32
  TRACK 92 AUDIO
    TITLE "0:"
    INDEX 01 01:28:53
  TRACK 93 AUDIO
    TITLE "4:cjc030_02948"
    INDEX 01 01:28:63
  TRACK 94 AUDIO
    TITLE "0:"
    INDEX 01 01:29:56
  TRACK 95 AUDIO
    TITLE "5:cjc030_02949"
    INDEX 01 01:29:64
  TRACK 96 AUDIO
    TITLE "0:"
    INDEX 01 01:31:12
  TRACK 97 AUDIO
    TITLE "3:cjc030_02950"
    INDEX 01 01:31:69
  TRACK 98 AUDIO
    TITLE "0:"
    INDEX 01 01:33:17
  TRACK 99 AUDIO
    TITLE "4:cjc030_02951"
    INDEX 01 01:33:27
  TRACK 100 AUDIO
    TITLE "0:"
    INDEX 01 01:34:46
  TRACK 101 AUDIO
    TITLE "5:cjc030_02952"
    INDEX 01 01:34:55
  TRACK 102 AUDIO
    TITLE "0:"
    INDEX 01 01:36:03
  TRACK 103 AUDIO
    TITLE "6:cjc030_02953"
    INDEX 01 01:36:17
  TRACK 104 AUDIO
    TITLE "0:"
    INDEX 01 01:38:22
  TRACK 105 AUDIO
    TITLE "6:cjc030_02954"
    INDEX 01 01:38:51
  TRACK 106 AUDIO
    TITLE "0:"
    INDEX 01 01:40:48
  TRACK 107 AUDIO
    TITLE "3:cjc030_02955"
    INDEX 01 01:41:22
  TRACK 108 AUDIO
    TITLE "0:"
    INDEX 01 01:42:45
  TRACK 109 AUDIO
    TITLE "4:cjc030_02956"
    INDEX 01 01:42:51
  TRACK 110 AUDIO
    TITLE "0:"
    INDEX 01 01:44:19
  TRACK 111 AUDIO
    TITLE "5:cjc030_02957"
    INDEX 01 01:44:24
  TRACK 112 AUDIO
    TITLE "0:"
    INDEX 01 01:45:51
  TRACK 113 AUDIO
    TITLE "6:cjc030_02958"
    INDEX 01 01:45:63
  TRACK 114 AUDIO
    TITLE "0:"
    INDEX 01 01:49:69
